:SAMPLES-PER-SECOND 24
:FULLY-SPECIFIED
:DEGREES
357
root  -2.55565 39.2008 5.05385 -175.302 53.5311 -178.542
RightUpLeg  -4.35477 1.62447 0.00187646
RightLeg  20.8865 -13.9376 -6.05468
RightFoot  -16.9164 -0.0220055 1.90065
RightToes  -2.09809e-008 3.77894e-005 6.81332e-007
Spine  -7.97087 -1.30296 6.8092
Spine1  16.5952 -1.88327 0.013822
HEad  -22.8276 38.4169 -24.5668
LeftShoulder1  7.12297 -12.8457 -37.4812
LeftArm  0.0582168 21.233 -33.1488
LeftForeArm  169.74 -66.9224 -157.052
LeftHand  -0.237329 -1.82647 3.99447
RightShoulder  3.38451 5.91056 30.0426
RightArm  6.34596 -28.444 32.8834
RightForeArm  150.218 75.5097 139.308
RightHand  -0.678872 9.10567 -5.81046
LeftUpLeg  -15.9671 -1.12124 15.3778
LeftLeg  20.4759 4.4122 2.14133
LeftFoot  0.185728 1.74392 -17.1844
LeftToes  1.24773e-006 1.46318e-008 1.32523e-009
358
root  -2.64655 39.1522 5.08415 -175.644 52.7559 -178.44
RightUpLeg  -4.14156 0.603251 0.0092765
RightLeg  21.2762 -13.7894 -6.10978
RightFoot  -17.1792 -0.0273767 1.74517
RightToes  -2.09809e-008 3.77894e-005 6.81332e-007
Spine  -5.89886 -1.39466 8.05262
Spine1  14.8632 -1.81328 -0.356244
HEad  -22.361 38.0638 -25.1276
LeftShoulder1  7.11944 -12.8573 -37.4306
LeftArm  0.22748 21.7375 -32.8486
LeftForeArm  170.094 -66.6792 -157.346
LeftHand  -0.230219 -1.88025 3.85459
RightShoulder  3.34352 5.85645 29.808
RightArm  6.36205 -28.268 31.3373
RightForeArm  150.336 75.3435 139.8
RightHand  -0.6602 9.05418 -5.67952
LeftUpLeg  -18.0275 1.19467 15.1937
LeftLeg  23.9408 3.04538 1.80354
LeftFoot  0.985327 1.97459 -18.2071
LeftToes  1.24773e-006 1.46318e-008 1.32523e-009
359
root  -2.73708 39.1092 5.02896 -175.981 52.2674 -178.612
RightUpLeg  -4.15234 -0.0207318 -0.303603
RightLeg  21.75 -13.4761 -6.10011
RightFoot  -17.4396 -0.00727455 2.07985
RightToes  -2.09809e-008 3.77894e-005 6.81332e-007
Spine  -4.63038 -1.23913 8.98291
Spine1  13.9667 -1.49364 -0.782353
HEad  -22.485 37.4926 -25.6425
LeftShoulder1  7.10374 -12.8491 -37.3589
LeftArm  0.55964 22.0937 -32.7883
LeftForeArm  170.472 -66.5254 -157.546
LeftHand  -0.268838 -1.70732 4.56876
RightShoulder  3.29231 5.79751 29.4771
RightArm  6.8849 -27.2283 29.418
RightForeArm  149.464 75.4068 139.451
RightHand  -0.630583 8.83219 -5.51841
LeftUpLeg  -19.9723 4.39776 14.4308
LeftLeg  26.6664 2.98686 1.96264
LeftFoot  2.06441 2.26175 -19.1969
LeftToes  1.24773e-006 1.46318e-008 1.32523e-009
360
root  -2.80647 39.0865 4.8796 -176.206 52.0747 -178.922
RightUpLeg  -4.2086 -0.395598 -0.822088
RightLeg  21.9878 -13.2084 -6.04217
RightFoot  -17.6401 0.0206882 2.54765
RightToes  -2.09809e-008 3.77894e-005 6.81332e-007
Spine  -3.59725 -0.810778 9.83722
Spine1  13.0243 -0.814194 -1.55794
HEad  -22.9891 36.8259 -26
LeftShoulder1  7.07809 -12.822 -37.2764
LeftArm  0.460993 22.6971 -32.6479
LeftForeArm  170.549 -66.3839 -157.698
LeftHand  -0.262011 -1.68326 4.47033
RightShoulder  3.25193 5.76515 29.1579
RightArm  7.61983 -25.7609 27.3287
RightForeArm  146.844 75.7513 137.913
RightHand  -0.73671 8.45078 -6.53793
LeftUpLeg  -21.4188 7.63252 13.3599
LeftLeg  27.748 4.1893 2.72095
LeftFoot  2.18441 2.24374 -18.8821
LeftToes  1.24773e-006 1.46318e-008 1.32523e-009
361
root  -2.85517 39.0912 4.62176 -176.314 51.6946 -179.101
RightUpLeg  -3.82259 -1.29716 -1.41403
RightLeg  21.5729 -12.9146 -5.816
RightFoot  -17.5944 0.0175984 2.50367
RightToes  -2.09809e-008 3.77894e-005 6.81332e-007
Spine  -2.88933 -0.437035 10.9613
Spine1  12.2974 -0.080583 -2.92852
HEad  -23.791 36.1741 -26.0588
LeftShoulder1  7.01567 -12.7742 -37.029
LeftArm  -0.138767 23.6857 -32.4347
LeftForeArm  170.286 -66.1937 -157.859
LeftHand  -0.2306 -1.83341 3.88236
RightShoulder  3.20641 5.75592 28.6887
RightArm  8.00636 -23.6096 26.1762
RightForeArm  142.775 76.4242 134.876
RightHand  -0.815797 8.46025 -7.19556
LeftUpLeg  -22.329 10.5963 12.3363
LeftLeg  26.9958 5.80118 3.53243
LeftFoot  1.57333 2.02097 -17.8167
LeftToes  1.24773e-006 1.46318e-008 1.32523e-009
362
root  -2.88442 39.0794 4.2494 -176.056 50.8312 -178.905
RightUpLeg  -3.13018 -2.4319 -1.8752
RightLeg  20.834 -12.4102 -5.43004
RightFoot  -17.5828 0.0587555 3.26334
RightToes  -2.09809e-008 3.77894e-005 6.81332e-007
Spine  -2.19512 -0.118934 11.6953
Spine1  11.187 0.400026 -3.70246
HEad  -24.3579 35.3898 -25.8849
LeftShoulder1  7.05175 -12.8369 -37.0823
LeftArm  -0.30337 25.1155 -31.8685
LeftForeArm  170.155 -65.986 -158.049
LeftHand  -0.223036 -1.82926 3.76234
RightShoulder  3.16042 5.7205 28.313
RightArm  8.40775 -20.7824 25.8338
RightForeArm  138.521 77.3425 130.414
RightHand  -0.659356 8.77025 -5.7752
LeftUpLeg  -23.2573 12.9435 11.6441
LeftLeg  25.0043 7.09422 3.92339
LeftFoot  1.4789 1.92333 -17.094
LeftToes  1.24773e-006 1.46318e-008 1.32523e-009
363
root  -2.88934 39.0096 3.77063 -175.275 49.5653 -178.382
RightUpLeg  -2.62861 -3.5768 -2.13513
RightLeg  20.3779 -12.3501 -5.2792
RightFoot  -17.8689 0.131963 4.43603
RightToes  -2.09809e-008 3.77894e-005 6.81332e-007
Spine  -1.87927 0.291296 12.1006
Spine1  9.99095 0.802842 -4.00997
HEad  -24.9085 34.3603 -25.7899
LeftShoulder1  7.06339 -12.8747 -37.0542
LeftArm  -0.169494 26.4942 -31.3774
LeftForeArm  169.924 -66.0233 -157.986
LeftHand  -0.21388 -1.7859 3.63279
RightShoulder  3.15263 5.70842 28.2723
RightArm  9.46368 -17.1765 26.1382
RightForeArm  132.01 78.4494 123.384
RightHand  -0.51871 8.61188 -4.67261
LeftUpLeg  -24.7168 14.3541 11.3796
LeftLeg  22.6542 7.59554 3.79137
LeftFoot  1.62015 1.90178 -16.7291
LeftToes  1.24773e-006 1.46318e-008 1.32523e-009
364
root  -2.87791 38.9016 3.19688 -174.395 48.0754 -177.843
RightUpLeg  -2.15581 -4.99879 -2.44801
RightLeg  20.15 -12.6629 -5.3016
RightFoot  -18.1611 0.15961 4.74471
RightToes  -2.09809e-008 3.77894e-005 6.81332e-007
Spine  -1.48911 0.86939 12.331
Spine1  8.5064 1.37485 -4.33423
HEad  -25.5254 32.9981 -25.7224
LeftShoulder1  7.1135 -12.9578 -37.1375
LeftArm  0.0212089 27.6929 -30.7292
LeftForeArm  169.498 -66.092 -157.872
LeftHand  -0.211479 -1.82682 3.57651
RightShoulder  3.17354 5.73907 28.3883
RightArm  11.2031 -13.032 27.2163
RightForeArm  122.391 79.4095 113.948
RightHand  -0.610933 8.08315 -5.6223
LeftUpLeg  -26.5122 15.5664 11.2033
LeftLeg  20.4002 7.66309 3.46259
LeftFoot  1.41504 1.84056 -16.4484
LeftToes  1.24773e-006 1.46318e-008 1.32523e-009
365
root  -2.86437 38.7631 2.5285 -173.665 46.4695 -177.424
RightUpLeg  -1.46757 -6.46026 -2.96495
RightLeg  19.9402 -12.3418 -5.08111
RightFoot  -18.5992 0.254904 5.99078
RightToes  -2.09809e-008 3.77894e-005 6.81332e-007
Spine  -1.04953 1.61827 12.4096
Spine1  7.25998 2.1986 -4.93314
HEad  -26.2451 31.2157 -25.3825
LeftShoulder1  7.20052 -13.0732 -37.3545
LeftArm  0.563422 28.5169 -29.8948
LeftForeArm  169.394 -66.014 -157.937
LeftHand  -0.23398 -1.83186 3.93752
RightShoulder  3.24265 5.85042 28.7267
RightArm  13.094 -8.10327 29.112
RightForeArm  109.348 80.134 100.782
RightHand  -0.739912 7.98073 -6.77461
LeftUpLeg  -28.4653 17.2704 10.6992
LeftLeg  18.1137 8.13571 3.28437
LeftFoot  1.30317 1.78247 -16.0729
LeftToes  1.24773e-006 1.46318e-008 1.32523e-009
